<svg xmlns="http://www.w3.org/2000/svg" viewBox="0 0 800 500" width="800" height="500">
  <!-- 背景 -->
  <rect width="800" height="500" fill="#fafafa"/>
  
  <!-- 标题 -->
  <text x="400" y="30" text-anchor="middle" font-family="Microsoft YaHei, sans-serif" font-size="18" font-weight="bold" fill="#1a1a1a">多Agent协同架构总览</text>
  
  <!-- 第一层：Agent调度管理中心 -->
  <rect x="50" y="60" width="700" height="85" rx="8" fill="#e3f2fd" stroke="#1976d2" stroke-width="2"/>
  <text x="400" y="80" text-anchor="middle" font-family="Microsoft YaHei" font-size="14" font-weight="bold" fill="#1565c0">Agent调度管理中心</text>
  <text x="400" y="100" text-anchor="middle" font-family="Microsoft YaHei" font-size="11" fill="#424242">任务编排 · 资源调度 · 状态监控 · 故障自愈</text>
  <text x="400" y="120" text-anchor="middle" font-family="Microsoft YaHei" font-size="10" fill="#757575">Kubernetes原生调度 · 弹性扩缩容 · 多Agent协同编排</text>
  <text x="400" y="138" text-anchor="middle" font-family="Microsoft YaHei" font-size="9" fill="#9e9e9e">第一层</text>
  
  <!-- 连接线 -->
  <line x1="400" y1="145" x2="400" y2="160" stroke="#bdbdbd" stroke-width="2"/>
  <polygon points="400,165 395,155 405,155" fill="#bdbdbd"/>
  
  <!-- 第二层：模型中心与训练场 -->
  <rect x="50" y="170" width="700" height="85" rx="8" fill="#f3e5f5" stroke="#7b1fa2" stroke-width="2"/>
  <text x="400" y="190" text-anchor="middle" font-family="Microsoft YaHei" font-size="14" font-weight="bold" fill="#6a1b9a">模型中心与训练场</text>
  <text x="400" y="210" text-anchor="middle" font-family="Microsoft YaHei" font-size="11" fill="#424242">基座模型托管 · 微调训练 · 版本控制 · 推理服务</text>
  <text x="400" y="230" text-anchor="middle" font-family="Microsoft YaHei" font-size="10" fill="#757575">LoRA/QLoRA轻量微调 · GPU虚拟化 · 多模型统一纳管</text>
  <text x="400" y="248" text-anchor="middle" font-family="Microsoft YaHei" font-size="9" fill="#9e9e9e">第二层</text>
  
  <!-- 连接线 -->
  <line x1="400" y1="255" x2="400" y2="270" stroke="#bdbdbd" stroke-width="2"/>
  <polygon points="400,275 395,265 405,265" fill="#bdbdbd"/>
  
  <!-- 第三层：政务可信Skills市场 -->
  <rect x="50" y="280" width="700" height="85" rx="8" fill="#e8f5e9" stroke="#388e3c" stroke-width="2"/>
  <text x="400" y="300" text-anchor="middle" font-family="Microsoft YaHei" font-size="14" font-weight="bold" fill="#2e7d32">政务可信Skills市场（SkillHub）</text>
  <text x="400" y="320" text-anchor="middle" font-family="Microsoft YaHei" font-size="11" fill="#424242">发现 · 验证 · 安装 · 使用 · 可信认证 · 版本管理</text>
  <text x="400" y="340" text-anchor="middle" font-family="Microsoft YaHei" font-size="10" fill="#757575">标准化接口规范 · 安全扫描 · 数字签名 · 私域生态</text>
  <text x="400" y="358" text-anchor="middle" font-family="Microsoft YaHei" font-size="9" fill="#9e9e9e">第三层</text>
  
  <!-- 连接线 -->
  <line x1="400" y1="365" x2="400" y2="380" stroke="#bdbdbd" stroke-width="2"/>
  <polygon points="400,385 395,375 405,375" fill="#bdbdbd"/>
  
  <!-- 第四层：资源与安全中心 -->
  <rect x="50" y="390" width="700" height="85" rx="8" fill="#fff3e0" stroke="#f57c00" stroke-width="2"/>
  <text x="400" y="410" text-anchor="middle" font-family="Microsoft YaHei" font-size="14" font-weight="bold" fill="#ef6c00">资源与安全中心</text>
  <text x="400" y="430" text-anchor="middle" font-family="Microsoft YaHei" font-size="11" fill="#424242">异构算力调度 · 身份认证 · 访问控制 · 审计追溯</text>
  <text x="400" y="450" text-anchor="middle" font-family="Microsoft YaHei" font-size="10" fill="#757575">容器/GPU/边缘混合调度 · 零信任架构 · 等保2.0三级</text>
  <text x="400" y="468" text-anchor="middle" font-family="Microsoft YaHei" font-size="9" fill="#9e9e9e">第四层</text>
  
  <!-- 侧边标注 -->
  <rect x="760" y="95" width="30" height="15" fill="#e3f2fd" stroke="#1976d2" stroke-width="1" rx="2"/>
  <text x="775" y="107" text-anchor="middle" font-family="Microsoft YaHei" font-size="8" fill="#1565c0">调度</text>
  
  <rect x="760" y="205" width="30" height="15" fill="#f3e5f5" stroke="#7b1fa2" stroke-width="1" rx="2"/>
  <text x="775" y="217" text-anchor="middle" font-family="Microsoft YaHei" font-size="8" fill="#6a1b9a">智能</text>
  
  <rect x="760" y="315" width="30" height="15" fill="#e8f5e9" stroke="#388e3c" stroke-width="1" rx="2"/>
  <text x="775" y="327" text-anchor="middle" font-family="Microsoft YaHei" font-size="8" fill="#2e7d32">能力</text>
  
  <rect x="760" y="425" width="30" height="15" fill="#fff3e0" stroke="#f57c00" stroke-width="1" rx="2"/>
  <text x="775" y="437" text-anchor="middle" font-family="Microsoft YaHei" font-size="8" fill="#ef6c00">底座</text>
</svg>